<svg width="32" height="32" viewBox="0 0 32 32" fill="none" xmlns="http://www.w3.org/2000/svg">
<g clip-path="url(#clip0)">
<path fill-rule="evenodd" clip-rule="evenodd" d="M0.768643 3.5935C0.0180664 5.03843 0.0180664 6.93673 0.0180664 10.7333V21.2667C0.0180664 25.0633 0.0180664 26.9616 0.768643 28.4065C1.40115 29.6241 2.39395 30.6169 3.61157 31.2494C5.05649 32 6.9548 32 10.7514 32H21.2847C25.0813 32 26.9796 32 28.4246 31.2494C29.6422 30.6169 30.635 29.6241 31.2675 28.4065C32.0181 26.9616 32.0181 25.0633 32.0181 21.2667V10.7333C32.0181 6.93673 32.0181 5.03843 31.2675 3.5935C30.635 2.37588 29.6422 1.38308 28.4246 0.750577C26.9796 0 25.0813 0 21.2847 0H10.7514C6.9548 0 5.05649 0 3.61157 0.750577C2.39395 1.38308 1.40115 2.37588 0.768643 3.5935ZM11.2024 4.43397C12.4436 4.37749 12.8401 4.36367 16.0003 4.36367H15.9967C19.1578 4.36367 19.5529 4.37749 20.7941 4.43397C22.0328 4.4907 22.8789 4.68682 23.6207 4.97458C24.3867 5.27155 25.034 5.66912 25.6812 6.31639C26.3285 6.96318 26.726 7.61239 27.0242 8.37773C27.3103 9.11761 27.5066 9.96318 27.5648 11.202C27.6205 12.4432 27.6351 12.8398 27.6351 16C27.6351 19.1603 27.6205 19.5559 27.5648 20.7971C27.5066 22.0354 27.3103 22.8812 27.0242 23.6214C26.726 24.3865 26.3285 25.0357 25.6812 25.6825C25.0347 26.3297 24.3865 26.7283 23.6214 27.0255C22.8811 27.3132 22.0345 27.5094 20.7958 27.5661C19.5546 27.6226 19.1592 27.6364 15.9988 27.6364C12.8389 27.6364 12.4426 27.6226 11.2014 27.5661C9.9629 27.5094 9.11711 27.3132 8.37677 27.0255C7.61194 26.7283 6.96275 26.3297 6.31622 25.6825C5.66921 25.0357 5.27165 24.3865 4.9742 23.6211C4.6867 22.8812 4.49058 22.0357 4.43361 20.7969C4.37737 19.5557 4.36331 19.1603 4.36331 16C4.36331 12.8398 4.37786 12.4429 4.43337 11.2017C4.48913 9.96342 4.68548 9.11761 4.97396 8.37749C5.27213 7.61239 5.6697 6.96318 6.31695 6.31639C6.96372 5.66936 7.61291 5.27179 8.37822 4.97458C9.11808 4.68682 9.96363 4.4907 11.2024 4.43397ZM15.6125 6.46052C15.3772 6.46042 15.1591 6.46032 14.9564 6.46064V6.45773C12.7878 6.46015 12.3718 6.4747 11.2984 6.52318C10.1639 6.5753 9.54788 6.76439 9.13771 6.92439C8.5947 7.13579 8.20683 7.38791 7.79957 7.79518C7.39231 8.20245 7.13971 8.59033 6.92881 9.13336C6.76954 9.54355 6.57997 10.1593 6.52809 11.2938C6.47234 12.5205 6.46119 12.8871 6.46119 15.9945C6.46119 19.1018 6.47234 19.4703 6.52809 20.697C6.57973 21.8315 6.76954 22.4473 6.92881 22.857C7.1402 23.4003 7.39231 23.7872 7.79957 24.1945C8.20683 24.6017 8.5947 24.8538 9.13771 25.0648C9.54812 25.224 10.1639 25.4136 11.2984 25.466C12.525 25.5217 12.8932 25.5338 16.0003 25.5338C19.1071 25.5338 19.4756 25.5217 20.7022 25.466C21.8367 25.4141 22.4529 25.225 22.8626 25.065C23.4059 24.8541 23.7925 24.602 24.1998 24.1947C24.6071 23.7877 24.8597 23.401 25.0706 22.858C25.2298 22.4483 25.4194 21.8325 25.4713 20.698C25.527 19.4713 25.5392 19.1028 25.5392 15.9974C25.5392 12.8919 25.527 12.5234 25.4713 11.2968C25.4196 10.1622 25.2298 9.54645 25.0706 9.13676C24.8592 8.59373 24.6071 8.20585 24.1998 7.79858C23.7928 7.3913 23.4056 7.13918 22.8626 6.92827C22.4525 6.769 21.8367 6.57943 20.7022 6.52755C19.4753 6.47179 19.1071 6.46064 16.0003 6.46064C15.866 6.46064 15.7368 6.46058 15.6125 6.46052ZM20.8152 9.78864C20.8152 9.01748 21.4406 8.39276 22.2115 8.39276V8.39227C22.9824 8.39227 23.6078 9.01773 23.6078 9.78864C23.6078 10.5595 22.9824 11.185 22.2115 11.185C21.4406 11.185 20.8152 10.5595 20.8152 9.78864ZM10.0247 16C10.0247 12.7 12.7001 10.0244 16 10.0243C19.3001 10.0243 21.9749 12.6999 21.9749 16C21.9749 19.3001 19.3003 21.9746 16.0003 21.9746C12.7003 21.9746 10.0247 19.3001 10.0247 16ZM19.879 16C19.879 13.8577 18.1423 12.1212 16.0003 12.1212C13.8581 12.1212 12.1216 13.8577 12.1216 16C12.1216 18.1421 13.8581 19.8788 16.0003 19.8788C18.1423 19.8788 19.879 18.1421 19.879 16Z" fill="url(#paint0_radial)"/>
<path fill-rule="evenodd" clip-rule="evenodd" d="M0.768643 3.5935C0.0180664 5.03843 0.0180664 6.93673 0.0180664 10.7333V21.2667C0.0180664 25.0633 0.0180664 26.9616 0.768643 28.4065C1.40115 29.6241 2.39395 30.6169 3.61157 31.2494C5.05649 32 6.9548 32 10.7514 32H21.2847C25.0813 32 26.9796 32 28.4246 31.2494C29.6422 30.6169 30.635 29.6241 31.2675 28.4065C32.0181 26.9616 32.0181 25.0633 32.0181 21.2667V10.7333C32.0181 6.93673 32.0181 5.03843 31.2675 3.5935C30.635 2.37588 29.6422 1.38308 28.4246 0.750577C26.9796 0 25.0813 0 21.2847 0H10.7514C6.9548 0 5.05649 0 3.61157 0.750577C2.39395 1.38308 1.40115 2.37588 0.768643 3.5935ZM11.2024 4.43397C12.4436 4.37749 12.8401 4.36367 16.0003 4.36367H15.9967C19.1578 4.36367 19.5529 4.37749 20.7941 4.43397C22.0328 4.4907 22.8789 4.68682 23.6207 4.97458C24.3867 5.27155 25.034 5.66912 25.6812 6.31639C26.3285 6.96318 26.726 7.61239 27.0242 8.37773C27.3103 9.11761 27.5066 9.96318 27.5648 11.202C27.6205 12.4432 27.6351 12.8398 27.6351 16C27.6351 19.1603 27.6205 19.5559 27.5648 20.7971C27.5066 22.0354 27.3103 22.8812 27.0242 23.6214C26.726 24.3865 26.3285 25.0357 25.6812 25.6825C25.0347 26.3297 24.3865 26.7283 23.6214 27.0255C22.8811 27.3132 22.0345 27.5094 20.7958 27.5661C19.5546 27.6226 19.1592 27.6364 15.9988 27.6364C12.8389 27.6364 12.4426 27.6226 11.2014 27.5661C9.9629 27.5094 9.11711 27.3132 8.37677 27.0255C7.61194 26.7283 6.96275 26.3297 6.31622 25.6825C5.66921 25.0357 5.27165 24.3865 4.9742 23.6211C4.6867 22.8812 4.49058 22.0357 4.43361 20.7969C4.37737 19.5557 4.36331 19.1603 4.36331 16C4.36331 12.8398 4.37786 12.4429 4.43337 11.2017C4.48913 9.96342 4.68548 9.11761 4.97396 8.37749C5.27213 7.61239 5.6697 6.96318 6.31695 6.31639C6.96372 5.66936 7.61291 5.27179 8.37822 4.97458C9.11808 4.68682 9.96363 4.4907 11.2024 4.43397ZM15.6125 6.46052C15.3772 6.46042 15.1591 6.46032 14.9564 6.46064V6.45773C12.7878 6.46015 12.3718 6.4747 11.2984 6.52318C10.1639 6.5753 9.54788 6.76439 9.13771 6.92439C8.5947 7.13579 8.20683 7.38791 7.79957 7.79518C7.39231 8.20245 7.13971 8.59033 6.92881 9.13336C6.76954 9.54355 6.57997 10.1593 6.52809 11.2938C6.47234 12.5205 6.46119 12.8871 6.46119 15.9945C6.46119 19.1018 6.47234 19.4703 6.52809 20.697C6.57973 21.8315 6.76954 22.4473 6.92881 22.857C7.1402 23.4003 7.39231 23.7872 7.79957 24.1945C8.20683 24.6017 8.5947 24.8538 9.13771 25.0648C9.54812 25.224 10.1639 25.4136 11.2984 25.466C12.525 25.5217 12.8932 25.5338 16.0003 25.5338C19.1071 25.5338 19.4756 25.5217 20.7022 25.466C21.8367 25.4141 22.4529 25.225 22.8626 25.065C23.4059 24.8541 23.7925 24.602 24.1998 24.1947C24.6071 23.7877 24.8597 23.401 25.0706 22.858C25.2298 22.4483 25.4194 21.8325 25.4713 20.698C25.527 19.4713 25.5392 19.1028 25.5392 15.9974C25.5392 12.8919 25.527 12.5234 25.4713 11.2968C25.4196 10.1622 25.2298 9.54645 25.0706 9.13676C24.8592 8.59373 24.6071 8.20585 24.1998 7.79858C23.7928 7.3913 23.4056 7.13918 22.8626 6.92827C22.4525 6.769 21.8367 6.57943 20.7022 6.52755C19.4753 6.47179 19.1071 6.46064 16.0003 6.46064C15.866 6.46064 15.7368 6.46058 15.6125 6.46052ZM20.8152 9.78864C20.8152 9.01748 21.4406 8.39276 22.2115 8.39276V8.39227C22.9824 8.39227 23.6078 9.01773 23.6078 9.78864C23.6078 10.5595 22.9824 11.185 22.2115 11.185C21.4406 11.185 20.8152 10.5595 20.8152 9.78864ZM10.0247 16C10.0247 12.7 12.7001 10.0244 16 10.0243C19.3001 10.0243 21.9749 12.6999 21.9749 16C21.9749 19.3001 19.3003 21.9746 16.0003 21.9746C12.7003 21.9746 10.0247 19.3001 10.0247 16ZM19.879 16C19.879 13.8577 18.1423 12.1212 16.0003 12.1212C13.8581 12.1212 12.1216 13.8577 12.1216 16C12.1216 18.1421 13.8581 19.8788 16.0003 19.8788C18.1423 19.8788 19.879 18.1421 19.879 16Z" fill="white"/>
</g>
<defs>
<radialGradient id="paint0_radial" cx="0" cy="0" r="1" gradientUnits="userSpaceOnUse" gradientTransform="translate(8.51811 34.4647) rotate(-90) scale(31.7144 29.4969)">
<stop stop-color="#FFDD55"/>
<stop offset="0.1" stop-color="#FFDD55"/>
<stop offset="0.5" stop-color="#FF543E"/>
<stop offset="1" stop-color="#C837AB"/>
</radialGradient>
<clipPath id="clip0">
<rect width="32" height="32" fill="white"/>
</clipPath>
</defs>
</svg>
