<svg width="32" height="32" viewBox="0 0 32 32" fill="none" xmlns="http://www.w3.org/2000/svg">
<path fill-rule="evenodd" clip-rule="evenodd" d="M0.750577 3.5935C0 5.03843 0 6.93673 0 10.7333V21.2667C0 25.0633 0 26.9616 0.750577 28.4065C1.38308 29.6241 2.37588 30.6169 3.5935 31.2494C5.03843 32 6.93673 32 10.7333 32H21.2667C25.0633 32 26.9616 32 28.4065 31.2494C29.6241 30.6169 30.6169 29.6241 31.2494 28.4065C32 26.9616 32 25.0633 32 21.2667V10.7333C32 6.93673 32 5.03843 31.2494 3.5935C30.6169 2.37588 29.6241 1.38308 28.4065 0.750577C26.9616 0 25.0633 0 21.2667 0H10.7333C6.93673 0 5.03843 0 3.5935 0.750577C2.37588 1.38308 1.38308 2.37588 0.750577 3.5935ZM5.16846 14.9148L24.4339 7.48402C25.3139 7.08466 26.1632 7.6955 25.8273 9.04217L22.5465 24.5025C22.3175 25.6012 21.6534 25.864 20.7337 25.3566L15.7357 21.6639L15.6346 21.7622C14.502 22.8634 13.5054 23.8324 13.3334 24.0007L13.315 24.0187C13.045 24.2827 12.8221 24.5006 12.3333 24.5006C11.8258 24.5006 11.7835 24.3505 11.6815 23.9888C11.6533 23.8888 11.6205 23.7727 11.5721 23.639L9.73366 18.0024L4.92879 16.5027C3.86135 16.1757 3.85356 15.4423 5.16846 14.9148ZM21.3179 10.825L10.4877 17.6579L12.3127 23.253L12.6738 19.4018L21.9473 11.0347C22.3543 10.6734 21.8586 10.4972 21.3179 10.825Z" fill="white"/>
</svg>
