<svg width="32" height="32" viewBox="0 0 32 32" fill="none" xmlns="http://www.w3.org/2000/svg">
<path fill-rule="evenodd" clip-rule="evenodd" d="M0.750577 3.5935C0 5.03843 0 6.93673 0 10.7333V21.2667C0 25.0633 0 26.9616 0.750577 28.4065C1.38308 29.6241 2.37588 30.6169 3.5935 31.2494C5.03843 32 6.93673 32 10.7333 32H21.2667C25.0633 32 26.9616 32 28.4065 31.2494C29.6241 30.6169 30.6169 29.6241 31.2494 28.4065C32 26.9616 32 25.0633 32 21.2667V10.7333C32 6.93673 32 5.03843 31.2494 3.5935C30.6169 2.37588 29.6241 1.38308 28.4065 0.750577C26.9616 0 25.0633 0 21.2667 0H10.7333C6.93673 0 5.03843 0 3.5935 0.750577C2.37588 1.38308 1.38308 2.37588 0.750577 3.5935ZM24.8923 12.701C24.8923 12.5012 24.8897 12.3014 24.8819 12.1015C25.7097 11.4565 26.4263 10.648 26.9956 9.73045C26.2368 10.0938 25.4185 10.339 24.5606 10.448C25.4375 9.88471 26.1085 8.98548 26.4263 7.91346C25.6063 8.44039 24.7002 8.82193 23.7329 9.0218C22.9603 8.13147 21.8595 7.57721 20.6408 7.57721C18.2997 7.57721 16.4022 9.63045 16.4022 12.1652C16.4022 12.5195 16.4393 12.8737 16.5116 13.2098C12.9897 13.019 9.86564 11.1929 7.77607 8.41295C7.40915 9.09432 7.20071 9.88475 7.20071 10.7206C7.20071 12.3104 7.94921 13.7186 9.08788 14.5453C8.39279 14.518 7.7382 14.3092 7.16628 13.973V14.0276C7.16628 16.2534 8.62792 18.1067 10.5685 18.5246C10.2102 18.6336 9.83636 18.6881 9.45135 18.6881C9.17831 18.6881 8.91132 18.6607 8.65206 18.6062C9.19211 20.4232 10.758 21.7587 12.6124 21.786C11.1619 23.0215 9.33336 23.7576 7.34802 23.7576C7.00607 23.7576 6.66929 23.7302 6.33768 23.6939C8.21364 24.993 10.4402 25.7562 12.8346 25.7562C20.6296 25.7562 24.8923 18.7607 24.8923 12.701Z" fill="white"/>
</svg>
