<svg width="32" height="32" viewBox="0 0 32 32" fill="none" xmlns="http://www.w3.org/2000/svg">
<path fill-rule="evenodd" clip-rule="evenodd" d="M0.750577 3.5935C0 5.03843 0 6.93673 0 10.7333V21.2667C0 25.0633 0 26.9616 0.750577 28.4065C1.38308 29.6241 2.37588 30.6169 3.5935 31.2494C5.03843 32 6.93673 32 10.7333 32H21.2667C25.0633 32 26.9616 32 28.4065 31.2494C29.6241 30.6169 30.6169 29.6241 31.2494 28.4065C32 26.9616 32 25.0633 32 21.2667V10.7333C32 6.93673 32 5.03843 31.2494 3.5935C30.6169 2.37588 29.6241 1.38308 28.4065 0.750577C26.9616 0 25.0633 0 21.2667 0H10.7333C6.93673 0 5.03843 0 3.5935 0.750577C2.37588 1.38308 1.38308 2.37588 0.750577 3.5935ZM24.4169 7.71966C22.401 5.70242 19.7617 4.53439 16.9292 4.39518L16.3603 4.3811C10.0827 4.3811 4.97345 9.48751 4.97092 15.7639C4.9701 17.7703 5.49455 19.7286 6.49124 21.4549L4.87543 27.3538L10.9131 25.7709C12.5766 26.6778 14.4495 27.1558 16.3557 27.1564H16.3604C22.6374 27.1564 27.747 22.0495 27.7496 15.773C27.7508 12.7314 26.5672 9.87129 24.4169 7.71966ZM11.5385 23.9151L11.1928 23.71L7.60999 24.6494L8.56629 21.1579L8.34122 20.7999C7.39363 19.2935 6.89318 17.5524 6.89389 15.7646C6.89597 10.5479 11.1426 6.30377 16.3642 6.30377C18.8926 6.30459 21.2693 7.2901 23.0566 9.0786C24.8439 10.867 25.8276 13.2442 25.8266 15.7723C25.8245 20.9894 21.578 25.2339 16.3604 25.2339H16.3565C14.6579 25.2333 12.9919 24.7772 11.5385 23.9151ZM21.7084 18.2238C21.9069 18.3196 22.041 18.3844 22.0982 18.4799C22.1694 18.5986 22.1694 19.168 21.9322 19.8326C21.6951 20.4969 20.5582 21.1033 20.0114 21.185C19.521 21.2583 18.9007 21.2888 18.219 21.0723C17.8057 20.9412 17.2756 20.7662 16.5966 20.4731C13.9289 19.3217 12.126 16.7373 11.7851 16.2488C11.7613 16.2146 11.7446 16.1906 11.7352 16.1782L11.7327 16.1749C11.5815 15.9731 10.5732 14.628 10.5732 13.2358C10.5732 11.9255 11.2173 11.2387 11.5136 10.9226C11.5339 10.901 11.5525 10.8812 11.5692 10.8629C11.8301 10.5781 12.1384 10.507 12.3281 10.507C12.5178 10.507 12.7077 10.5088 12.8735 10.517C12.8939 10.518 12.9152 10.5179 12.9372 10.5178C13.1031 10.5168 13.3098 10.5156 13.5138 11.0053C13.5922 11.1936 13.707 11.4727 13.828 11.7672C14.0729 12.3632 14.3436 13.022 14.3912 13.1173C14.4623 13.2597 14.5098 13.4257 14.415 13.6156C14.4007 13.6441 14.3875 13.6711 14.3749 13.6968C14.3037 13.8421 14.2513 13.949 14.1304 14.0901C14.083 14.1455 14.0339 14.2051 13.9849 14.2647C13.8869 14.3841 13.7888 14.5034 13.7035 14.5884C13.561 14.7302 13.4127 14.8842 13.5787 15.1689C13.7447 15.4537 14.3158 16.3851 15.1619 17.1393C16.0714 17.9502 16.8619 18.2929 17.2624 18.4666C17.3406 18.5004 17.4039 18.5279 17.4504 18.5511C17.7349 18.6935 17.9009 18.6697 18.0669 18.4799C18.2329 18.2901 18.7783 17.6493 18.968 17.3646C19.1577 17.08 19.3474 17.1274 19.6083 17.2222C19.8691 17.3172 21.2682 18.0053 21.5528 18.1477C21.6084 18.1755 21.6603 18.2005 21.7084 18.2238Z" fill="white"/>
</svg>
