<svg width="32" height="32" viewBox="0 0 32 32" fill="none" xmlns="http://www.w3.org/2000/svg">
<path fill-rule="evenodd" clip-rule="evenodd" d="M0.750577 3.5935C0 5.03843 0 6.93673 0 10.7333V21.2667C0 25.0633 0 26.9616 0.750577 28.4065C1.38308 29.6241 2.37588 30.6169 3.5935 31.2494C5.03843 32 6.93673 32 10.7333 32H21.2667C25.0633 32 26.9616 32 28.4065 31.2494C29.6241 30.6169 30.6169 29.6241 31.2494 28.4065C32 26.9616 32 25.0633 32 21.2667V10.7333C32 6.93673 32 5.03843 31.2494 3.5935C30.6169 2.37588 29.6241 1.38308 28.4065 0.750577C26.9616 0 25.0633 0 21.2667 0H10.7333C6.93673 0 5.03843 0 3.5935 0.750577C2.37588 1.38308 1.38308 2.37588 0.750577 3.5935ZM27.5057 9.96265C27.2289 8.93464 26.4184 8.1241 25.3904 7.84733C23.5123 7.33333 15.9999 7.33333 15.9999 7.33333C15.9999 7.33333 8.48763 7.33333 6.60954 7.82757C5.60131 8.10433 4.771 8.93464 4.49423 9.96265C4 11.8407 4 15.7353 4 15.7353C4 15.7353 4 19.6496 4.49423 21.5079C4.771 22.5359 5.58154 23.3464 6.60954 23.6232C8.50739 24.1372 15.9999 24.1372 15.9999 24.1372C15.9999 24.1372 23.5123 24.1372 25.3904 23.643C26.4184 23.3662 27.2289 22.5557 27.5057 21.5277C27.9999 19.6496 27.9999 15.755 27.9999 15.755C27.9999 15.755 28.0197 11.8407 27.5057 9.96265ZM13.6078 19.196L19.8549 15.598L13.6078 12V19.196Z" fill="white"/>
</svg>
